<svg xmlns="http://www.w3.org/2000/svg" width="20" height="20" viewBox="0 0 20 20">
  <g id="User_Alt" data-name="User Alt" transform="translate(-99.78 -1474.78)">
    <circle id="Ellipse_559" data-name="Ellipse 559" cx="9" cy="9" r="9" transform="translate(100.78 1475.78)" fill="none" stroke="#000" stroke-miterlimit="10" stroke-width="2"/>
    <g id="Group_70087" data-name="Group 70087" transform="translate(103.348 1478.649)">
      <path id="Path_58350" data-name="Path 58350" d="M121.668,1484.349a2.332,2.332,0,1,0-4.664,0c.015.264.259,1.566.259,1.566a2.073,2.073,0,1,0,4.146,0S121.656,1484.613,121.668,1484.349Z" transform="translate(-112.902 -1482)" fill="none" stroke="#000" stroke-miterlimit="10" stroke-width="2"/>
      <path id="Path_58351" data-name="Path 58351" d="M107,1508.692v-.239a2.355,2.355,0,0,1,2.04-2.18l4.393-.773,4.408.77a2.426,2.426,0,0,1,2.024,2.18v.241" transform="translate(-107 -1496.494)" fill="none" stroke="#000" stroke-miterlimit="10" stroke-width="2"/>
    </g>
  </g>
</svg>
